<svg xmlns="http://www.w3.org/2000/svg" width="512" height="512" viewBox="0 0 100 100">
  <defs>
    <linearGradient id="bg" x1="0" y1="0" x2="100" y2="100" gradientUnits="userSpaceOnUse">
      <stop offset="0%"   stop-color="#44BDB7"/>
      <stop offset="55%"  stop-color="#2DA09B"/>
      <stop offset="100%" stop-color="#1B7C8A"/>
    </linearGradient>
    <linearGradient id="lf" x1="50" y1="10" x2="50" y2="90" gradientUnits="userSpaceOnUse">
      <stop offset="0%"   stop-color="#FFFFFF"/>
      <stop offset="100%" stop-color="#E2F5F4"/>
    </linearGradient>
    <radialGradient id="shine" cx="42%" cy="27%" r="34%">
      <stop offset="0%"   stop-color="#FFFFFF" stop-opacity="0.55"/>
      <stop offset="100%" stop-color="#FFFFFF" stop-opacity="0"/>
    </radialGradient>
  </defs>
  <rect width="100" height="100" rx="22" fill="url(#bg)"/>
  <path d="M50 11 C58.5 11.5 72 23 72.5 44 C73 65.5 65 84 50 88.5 C35 84 27 65.5 27.5 44 C28 23 41.5 11.5 50 11 Z" fill="url(#lf)" opacity="0.97"/>
  <path d="M50 11 C58.5 11.5 72 23 72.5 44 C73 65.5 65 84 50 88.5 C35 84 27 65.5 27.5 44 C28 23 41.5 11.5 50 11 Z" fill="url(#shine)"/>
  <line x1="50" y1="14" x2="50" y2="84.5" stroke="#1E8986" stroke-width="1.15" stroke-linecap="round" opacity="0.42"/>
  <path d="M50 30 C46 28.5 41.5 27 36.5 26.5" stroke="#1E8986" stroke-width="0.95" fill="none" stroke-linecap="round" opacity="0.38"/>
  <path d="M50 30 C54 28.5 58.5 27 63.5 26.5" stroke="#1E8986" stroke-width="0.95" fill="none" stroke-linecap="round" opacity="0.38"/>
  <path d="M50 50 C45.5 49 40 48.5 34 49" stroke="#1E8986" stroke-width="0.95" fill="none" stroke-linecap="round" opacity="0.34"/>
  <path d="M50 50 C54.5 49 60 48.5 66 49" stroke="#1E8986" stroke-width="0.95" fill="none" stroke-linecap="round" opacity="0.34"/>
  <path d="M50 67 C46.5 67.5 42.5 69 38 71.5" stroke="#1E8986" stroke-width="0.95" fill="none" stroke-linecap="round" opacity="0.28"/>
  <path d="M50 67 C53.5 67.5 57.5 69 62 71.5" stroke="#1E8986" stroke-width="0.95" fill="none" stroke-linecap="round" opacity="0.28"/>
</svg>
